<?xml version="1.0" encoding="UTF-8" standalone="no"?>
<!-- Generator: Adobe Illustrator 19.0.0, SVG Export Plug-In . SVG Version: 6.00 Build 0)  -->

<svg
   xmlns:dc="http://purl.org/dc/elements/1.1/"
   xmlns:cc="http://creativecommons.org/ns#"
   xmlns:rdf="http://www.w3.org/1999/02/22-rdf-syntax-ns#"
   xmlns:svg="http://www.w3.org/2000/svg"
   xmlns="http://www.w3.org/2000/svg"
   xmlns:sodipodi="http://sodipodi.sourceforge.net/DTD/sodipodi-0.dtd"
   xmlns:inkscape="http://www.inkscape.org/namespaces/inkscape"
   version="1.1"
   id="Capa_1"
   x="0px"
   y="0px"
   viewBox="0 0 487.622 487.622"
   style="enable-background:new 0 0 487.622 487.622;"
   xml:space="preserve"
   sodipodi:docname="back.svg"
   inkscape:version="0.92.4 5da689c313, 2019-01-14"><metadata
   id="metadata47"><rdf:RDF><cc:Work
       rdf:about=""><dc:format>image/svg+xml</dc:format><dc:type
         rdf:resource="http://purl.org/dc/dcmitype/StillImage" /></cc:Work></rdf:RDF></metadata><defs
   id="defs45" /><sodipodi:namedview
   pagecolor="#ffffff"
   bordercolor="#666666"
   borderopacity="1"
   objecttolerance="10"
   gridtolerance="10"
   guidetolerance="10"
   inkscape:pageopacity="0"
   inkscape:pageshadow="2"
   inkscape:window-width="1366"
   inkscape:window-height="674"
   id="namedview43"
   showgrid="false"
   inkscape:zoom="0.48398144"
   inkscape:cx="243.811"
   inkscape:cy="243.811"
   inkscape:window-x="0"
   inkscape:window-y="0"
   inkscape:window-maximized="1"
   inkscape:current-layer="g10" />
<g
   id="g10">
	<g
   id="g8">
		<circle
   style="fill:#7383bf;fill-opacity:1"
   cx="243.811"
   cy="243.811"
   r="243.811"
   id="circle2" />
		<path
   style="opacity:0.37;fill:#7345bf;enable-background:new;fill-opacity:1"
   d="M487.622,243.811c0-25.926-4.062-50.899-11.559-74.338    l-85.139-50.042l-9.113,71.372l-26,27.008l-98.634-52.41l2.2,85.41l-177.82,15.985l301.438,177.197    C446.229,399.944,487.622,326.716,487.622,243.811z"
   id="path4" />
		<path
   style="fill:#FFFFFF;"
   d="M390.924,119.431c-4.45,19.311-12.688,36.823-23.533,51.296    c-10.826,14.501-24.199,25.99-38.531,34.005c-14.337,8.034-29.606,12.579-44.245,13.801c-7.324,0.62-14.492,0.423-21.368-0.493    c-2.051-0.273-4.072-0.618-6.069-1.016v-51.623l-87.81,50.697l-87.811,50.698l87.811,50.697l87.81,50.697v-50.684    c1.902-0.462,3.801-0.942,5.682-1.459c6.317-1.734,12.508-3.772,18.534-6.099c12.055-4.652,23.446-10.461,33.948-17.227    c21.025-13.527,38.432-30.875,51.374-50.137c12.966-19.265,21.482-40.452,25.407-61.616    C396.08,159.794,395.399,138.709,390.924,119.431z"
   id="path6" />
	</g>
</g>
<g
   id="g12">
</g>
<g
   id="g14">
</g>
<g
   id="g16">
</g>
<g
   id="g18">
</g>
<g
   id="g20">
</g>
<g
   id="g22">
</g>
<g
   id="g24">
</g>
<g
   id="g26">
</g>
<g
   id="g28">
</g>
<g
   id="g30">
</g>
<g
   id="g32">
</g>
<g
   id="g34">
</g>
<g
   id="g36">
</g>
<g
   id="g38">
</g>
<g
   id="g40">
</g>
</svg>