<?xml version="1.0" encoding="UTF-8" standalone="no"?>
<!-- Generator: Adobe Illustrator 19.0.0, SVG Export Plug-In . SVG Version: 6.00 Build 0)  -->

<svg
   xmlns:dc="http://purl.org/dc/elements/1.1/"
   xmlns:cc="http://creativecommons.org/ns#"
   xmlns:rdf="http://www.w3.org/1999/02/22-rdf-syntax-ns#"
   xmlns:svg="http://www.w3.org/2000/svg"
   xmlns="http://www.w3.org/2000/svg"
   xmlns:sodipodi="http://sodipodi.sourceforge.net/DTD/sodipodi-0.dtd"
   xmlns:inkscape="http://www.inkscape.org/namespaces/inkscape"
   version="1.1"
   id="Capa_1"
   x="0px"
   y="0px"
   viewBox="0 0 455.111 455.111"
   style="enable-background:new 0 0 455.111 455.111;"
   xml:space="preserve"
   sodipodi:docname="cancel.svg"
   inkscape:version="0.92.4 5da689c313, 2019-01-14"
   inkscape:export-filename="/home/rho/Files/RootBrain/docs/img/myassets/cancel.png"
   inkscape:export-xdpi="96"
   inkscape:export-ydpi="96"><metadata
   id="metadata43"><rdf:RDF><cc:Work
       rdf:about=""><dc:format>image/svg+xml</dc:format><dc:type
         rdf:resource="http://purl.org/dc/dcmitype/StillImage" /></cc:Work></rdf:RDF></metadata><defs
   id="defs41" /><sodipodi:namedview
   pagecolor="#ffffff"
   bordercolor="#666666"
   borderopacity="1"
   objecttolerance="10"
   gridtolerance="10"
   guidetolerance="10"
   inkscape:pageopacity="0"
   inkscape:pageshadow="2"
   inkscape:window-width="1366"
   inkscape:window-height="674"
   id="namedview39"
   showgrid="false"
   inkscape:zoom="0.51855482"
   inkscape:cx="227.5555"
   inkscape:cy="227.5555"
   inkscape:window-x="0"
   inkscape:window-y="0"
   inkscape:window-maximized="1"
   inkscape:current-layer="Capa_1" />
<circle
   style="fill:#7383bf;fill-opacity:1"
   cx="227.556"
   cy="227.556"
   r="227.556"
   id="circle2" />
<path
   style="fill:#735bbf;fill-opacity:1"
   d="M455.111,227.556c0,125.156-102.4,227.556-227.556,227.556c-72.533,0-136.533-32.711-177.778-85.333  c38.4,31.289,88.178,49.778,142.222,49.778c125.156,0,227.556-102.4,227.556-227.556c0-54.044-18.489-103.822-49.778-142.222  C422.4,91.022,455.111,155.022,455.111,227.556z"
   id="path4" />
<path
   style="fill:#FFFFFF;"
   d="M331.378,331.378c-8.533,8.533-22.756,8.533-31.289,0l-72.533-72.533l-72.533,72.533  c-8.533,8.533-22.756,8.533-31.289,0c-8.533-8.533-8.533-22.756,0-31.289l72.533-72.533l-72.533-72.533  c-8.533-8.533-8.533-22.756,0-31.289c8.533-8.533,22.756-8.533,31.289,0l72.533,72.533l72.533-72.533  c8.533-8.533,22.756-8.533,31.289,0c8.533,8.533,8.533,22.756,0,31.289l-72.533,72.533l72.533,72.533  C339.911,308.622,339.911,322.844,331.378,331.378z"
   id="path6" />
<g
   id="g8">
</g>
<g
   id="g10">
</g>
<g
   id="g12">
</g>
<g
   id="g14">
</g>
<g
   id="g16">
</g>
<g
   id="g18">
</g>
<g
   id="g20">
</g>
<g
   id="g22">
</g>
<g
   id="g24">
</g>
<g
   id="g26">
</g>
<g
   id="g28">
</g>
<g
   id="g30">
</g>
<g
   id="g32">
</g>
<g
   id="g34">
</g>
<g
   id="g36">
</g>
</svg>